<svg width="21" height="20" viewBox="0 0 21 20" fill="none" xmlns="http://www.w3.org/2000/svg">
<g clip-path="url(#clip0)">
<path d="M20.5878 5.88005C20.5401 4.81738 20.3648 4.0868 20.1138 3.45374C19.8549 2.78176 19.4565 2.18014 18.9346 1.68002C18.4247 1.1721 17.8072 0.777435 17.13 0.527447C16.4808 0.281274 15.7398 0.109427 14.6563 0.0625732C13.5647 0.0117516 13.2181 0 10.4495 0C7.68091 0 7.33437 0.0117516 6.24681 0.0586052C5.1633 0.105459 4.41839 0.277459 3.77308 0.523479C3.08777 0.777435 2.47435 1.16814 1.96442 1.68002C1.44655 2.18014 1.0443 2.78573 0.789253 3.44992C0.538254 4.0868 0.363037 4.81341 0.315265 5.87609C0.263447 6.9467 0.251465 7.28658 0.251465 10.002C0.251465 12.7173 0.263447 13.0572 0.311219 14.1239C0.358991 15.1865 0.534364 15.9171 0.785363 16.5502C1.0443 17.2221 1.44655 17.8238 1.96442 18.3239C2.47435 18.8318 3.09182 19.2265 3.76903 19.4765C4.41839 19.7226 5.15925 19.8945 6.24292 19.9413C7.33032 19.9883 7.67702 19.9999 10.4456 19.9999C13.2142 19.9999 13.5608 19.9883 14.6484 19.9413C15.7319 19.8945 16.4768 19.7226 17.1221 19.4765C18.4925 18.9568 19.5761 17.8941 20.1059 16.5502C20.3568 15.9133 20.5321 15.1865 20.5799 14.1239C20.6277 13.0572 20.6397 12.7173 20.6397 10.002C20.6397 7.28658 20.6356 6.9467 20.5878 5.88005ZM18.7515 14.0457C18.7076 15.0225 18.5403 15.5499 18.4009 15.9015C18.0582 16.7728 17.3532 17.4643 16.4648 17.8004C16.1063 17.9372 15.5646 18.1012 14.5726 18.1441C13.497 18.1911 13.1744 18.2027 10.4536 18.2027C7.73273 18.2027 7.4061 18.1911 6.33442 18.1441C5.33851 18.1012 4.80072 17.9372 4.4422 17.8004C4.00011 17.6402 3.5977 17.3862 3.27108 17.0541C2.93247 16.7298 2.67354 16.3391 2.51014 15.9055C2.37072 15.5539 2.20344 15.0225 2.15971 14.0497C2.11178 12.9948 2.09996 12.6783 2.09996 10.0097C2.09996 7.34122 2.11178 7.02087 2.15971 5.96995C2.20344 4.99319 2.37072 4.46575 2.51014 4.11412C2.67354 3.68038 2.93247 3.28586 3.27512 2.96536C3.60564 2.63327 4.004 2.37931 4.44625 2.21921C4.80477 2.08247 5.34661 1.9184 6.33846 1.87537C7.41404 1.82851 7.73678 1.81676 10.4575 1.81676C13.1823 1.81676 13.5049 1.82851 14.5766 1.87537C15.5725 1.9184 16.1103 2.08247 16.4688 2.21921C16.9109 2.37931 17.3133 2.63327 17.64 2.96536C17.9786 3.28967 18.2375 3.68038 18.4009 4.11412C18.5403 4.46575 18.7076 4.99701 18.7515 5.96995C18.7993 7.02484 18.8112 7.34122 18.8112 10.0097C18.8112 12.6783 18.7993 12.9908 18.7515 14.0457Z" fill="white"/>
<path d="M10.4499 4.8642C7.55787 4.8642 5.21143 7.16537 5.21143 10.0019C5.21143 12.8385 7.55787 15.1396 10.4499 15.1396C13.3421 15.1396 15.6883 12.8385 15.6883 10.0019C15.6883 7.16537 13.3421 4.8642 10.4499 4.8642ZM10.4499 13.3346C8.5737 13.3346 7.05183 11.8422 7.05183 10.0019C7.05183 8.16165 8.5737 6.66921 10.4499 6.66921C12.3262 6.66921 13.8479 8.16165 13.8479 10.0019C13.8479 11.8422 12.3262 13.3346 10.4499 13.3346V13.3346Z" fill="white"/>
<path d="M17.1184 4.6611C17.1184 5.32346 16.5708 5.86052 15.8953 5.86052C15.22 5.86052 14.6724 5.32346 14.6724 4.6611C14.6724 3.99858 15.22 3.46167 15.8953 3.46167C16.5708 3.46167 17.1184 3.99858 17.1184 4.6611V4.6611Z" fill="white"/>
</g>
<defs>
<clipPath id="clip0">
<rect width="20.3922" height="20" fill="white" transform="translate(0.21582)"/>
</clipPath>
</defs>
</svg>
