<svg width="226" height="90" viewBox="0 0 226 90" fill="none" xmlns="http://www.w3.org/2000/svg">
<rect x="0.5" y="0.5" width="225" height="89" rx="3.5" stroke="#AFB1B8"/>
<path d="M99.3457 65.7946C99.3607 65.795 99.3755 65.7982 99.3891 65.8041C99.4028 65.81 99.4152 65.8184 99.4254 65.8289L99.6312 66.0446C99.4714 66.2191 99.274 66.3588 99.0524 66.4539C98.7929 66.5577 98.5133 66.6078 98.2319 66.6009C97.9675 66.6061 97.7049 66.5594 97.4603 66.4637C97.2396 66.3758 97.0414 66.2437 96.879 66.0764C96.7132 65.9029 96.5855 65.6996 96.5034 65.4784C96.4135 65.2318 96.3692 64.9723 96.3723 64.7113C96.3686 64.4486 96.4166 64.1875 96.5137 63.9417C96.6036 63.7191 96.7391 63.5158 96.9124 63.3436C97.0881 63.1749 97.2982 63.0423 97.5297 62.9539C97.7831 62.8604 98.0528 62.8138 98.3245 62.8167C98.5769 62.8108 98.8279 62.8534 99.0627 62.9417C99.2664 63.0259 99.4535 63.1428 99.6157 63.2873L99.4434 63.5177C99.4315 63.5339 99.4167 63.548 99.3997 63.5593C99.3793 63.5726 99.3548 63.5787 99.3302 63.5765C99.3035 63.5747 99.2778 63.5663 99.2556 63.552L99.163 63.4907L99.0344 63.4123C98.9789 63.3832 98.9213 63.3578 98.8621 63.3363C98.7858 63.3103 98.7076 63.2898 98.628 63.275C98.5271 63.2573 98.4246 63.2491 98.3219 63.2505C98.1263 63.2482 97.9322 63.2832 97.7509 63.3534C97.5819 63.4185 97.4294 63.5171 97.3034 63.6427C97.1751 63.7762 97.0763 63.9329 97.0127 64.1034C96.9403 64.2985 96.9046 64.5043 96.9073 64.7113C96.9042 64.9214 96.9399 65.1305 97.0127 65.3289C97.0755 65.498 97.1725 65.6537 97.2982 65.7872C97.416 65.9117 97.5621 66.0089 97.7252 66.0715C97.8931 66.1379 98.0733 66.1712 98.2551 66.1696C98.3601 66.1711 98.465 66.1646 98.5689 66.15C98.7385 66.1302 98.9012 66.0741 99.0447 65.9858C99.1167 65.9405 99.1847 65.8897 99.2479 65.8338C99.2744 65.8098 99.3091 65.7958 99.3457 65.7946Z" fill="#AFB1B8"/>
<path d="M105.287 64.7108C105.29 64.9709 105.243 65.2292 105.148 65.473C105.064 65.6941 104.932 65.8958 104.761 66.0648C104.589 66.2338 104.382 66.3662 104.153 66.4533C103.649 66.6363 103.093 66.6363 102.589 66.4533C102.361 66.3648 102.155 66.2321 101.985 66.0636C101.813 65.8916 101.68 65.6882 101.594 65.4657C101.408 64.972 101.408 64.4325 101.594 63.9388C101.681 63.7162 101.814 63.5122 101.985 63.3384C102.157 63.1752 102.363 63.0476 102.589 62.9635C103.092 62.7772 103.65 62.7772 104.153 62.9635C104.381 63.0519 104.588 63.1846 104.76 63.3531C104.929 63.5235 105.061 63.7243 105.148 63.9437C105.244 64.1892 105.291 64.4492 105.287 64.7108ZM104.747 64.7108C104.751 64.5028 104.718 64.2956 104.649 64.0981C104.592 63.929 104.498 63.7729 104.374 63.6399C104.253 63.5139 104.105 63.4152 103.939 63.3507C103.573 63.2167 103.168 63.2167 102.802 63.3507C102.637 63.4152 102.488 63.5139 102.368 63.6399C102.242 63.7722 102.147 63.9284 102.09 64.0981C101.959 64.4971 101.959 64.9246 102.09 65.3235C102.148 65.4931 102.243 65.6492 102.368 65.7818C102.489 65.907 102.637 66.0049 102.802 66.0685C103.169 66.1991 103.573 66.1991 103.939 66.0685C104.105 66.0049 104.253 65.907 104.374 65.7818C104.497 65.6484 104.591 65.4925 104.649 65.3235C104.718 65.1261 104.751 64.9189 104.747 64.7108Z" fill="#AFB1B8"/>
<path d="M109.341 65.3532L109.395 65.4904C109.415 65.4414 109.433 65.3973 109.454 65.3532C109.474 65.3071 109.496 65.2621 109.521 65.2184L110.835 62.942C110.861 62.9028 110.884 62.8783 110.91 62.8709C110.945 62.8608 110.981 62.8566 111.018 62.8587H111.406V66.5613H110.946V63.8388C110.946 63.8045 110.946 63.7653 110.946 63.7237C110.943 63.6812 110.943 63.6387 110.946 63.5962L109.624 65.9046C109.607 65.9391 109.58 65.9684 109.546 65.9888C109.513 66.0092 109.473 66.02 109.433 66.0197H109.359C109.319 66.0203 109.279 66.0097 109.246 65.9892C109.212 65.9687 109.185 65.9393 109.168 65.9046L107.808 63.5815C107.808 63.6256 107.808 63.6698 107.808 63.7139C107.808 63.758 107.808 63.7972 107.808 63.8315V66.5539H107.363V62.8587H107.751C107.788 62.8566 107.824 62.8608 107.859 62.8709C107.891 62.886 107.917 62.9111 107.931 62.942L109.274 65.2209C109.3 65.263 109.323 65.3073 109.341 65.3532Z" fill="#AFB1B8"/>
<path d="M114.287 65.1692V66.5562H113.772V62.8585H114.92C115.136 62.8546 115.352 62.8818 115.56 62.9394C115.727 62.9843 115.881 63.0629 116.013 63.1697C116.127 63.2699 116.215 63.394 116.27 63.5324C116.331 63.6832 116.36 63.8438 116.357 64.0053C116.36 64.1675 116.327 64.3284 116.262 64.4782C116.2 64.6201 116.105 64.7466 115.985 64.8482C115.853 64.9595 115.697 65.043 115.529 65.0933C115.329 65.1542 115.12 65.1832 114.909 65.179L114.287 65.1692ZM114.287 64.7723H114.909C115.045 64.7739 115.179 64.7549 115.308 64.7159C115.414 64.6818 115.512 64.6277 115.596 64.5566C115.673 64.4888 115.733 64.405 115.771 64.3116C115.813 64.2128 115.834 64.107 115.833 64.0004C115.839 63.8976 115.821 63.7948 115.781 63.6992C115.741 63.6035 115.68 63.5174 115.601 63.4466C115.405 63.3004 115.158 63.2296 114.909 63.2481H114.287V64.7723Z" fill="#AFB1B8"/>
<path d="M121.201 66.5612H120.794C120.754 66.5626 120.714 66.5505 120.681 66.5268C120.652 66.5038 120.629 66.4744 120.614 66.4411L120.264 65.5466H118.508L118.145 66.4411C118.132 66.4738 118.11 66.5025 118.081 66.5244C118.048 66.5495 118.007 66.5625 117.965 66.5612H117.559L119.102 62.8582H119.637L121.201 66.5612ZM118.654 65.1863H120.105L119.493 63.6791C119.446 63.5658 119.407 63.4495 119.377 63.3311L119.318 63.5247C119.3 63.5836 119.279 63.6375 119.261 63.6816L118.654 65.1863Z" fill="#AFB1B8"/>
<path d="M123.423 62.8754C123.454 62.8915 123.481 62.9141 123.501 62.9416L125.751 65.7329C125.751 65.6887 125.751 65.6446 125.751 65.603C125.751 65.5613 125.751 65.5197 125.751 65.4804V62.8582H126.212V66.5612H125.954C125.918 66.5622 125.882 66.5547 125.849 66.5391C125.817 66.5215 125.789 66.4982 125.767 66.4705L123.519 63.6817C123.521 63.7241 123.521 63.7666 123.519 63.8091C123.519 63.8508 123.519 63.8875 123.519 63.9218V66.5612H123.058V62.8582H123.331C123.363 62.8574 123.394 62.8632 123.423 62.8754Z" fill="#AFB1B8"/>
<path d="M130.003 65.0884V66.5588H129.488V65.0884L128.066 62.8584H128.526C128.566 62.8561 128.605 62.8674 128.637 62.8902C128.665 62.914 128.688 62.9422 128.706 62.9735L129.596 64.4121C129.632 64.4733 129.663 64.5297 129.689 64.5836C129.715 64.6375 129.735 64.689 129.753 64.7405L129.82 64.5812C129.845 64.5229 129.874 64.4664 129.908 64.4121L130.785 62.9637C130.803 62.9348 130.826 62.9084 130.852 62.8853C130.882 62.8599 130.922 62.8467 130.962 62.8486H131.428L130.003 65.0884Z" fill="#AFB1B8"/>
<path d="M109.086 56.6443C109.31 56.6712 109.536 56.6933 109.765 56.7129C113.236 55.2337 116.172 52.8127 118.206 49.7526C120.24 46.6924 121.283 43.1289 121.203 39.5073L117.379 35.8633C118.156 39.7191 117.792 43.705 116.328 47.3751C114.863 51.0452 112.356 54.2546 109.086 56.6443Z" fill="#AFB1B8"/>
<path d="M107.72 56.4748L107.823 56.4944C111.317 54.1132 113.981 50.788 115.471 46.9488C116.96 43.1097 117.206 38.9331 116.177 34.9592L110.73 29.769C112.933 34.0353 113.82 38.8098 113.287 43.5374C112.755 48.265 110.824 52.7514 107.72 56.4748Z" fill="#AFB1B8"/>
<path d="M126.196 43.7861C125.27 47.7654 123.023 51.3541 119.786 54.0196C118.841 54.8023 117.821 55.4996 116.741 56.1025C119.376 55.3646 121.798 54.0598 123.821 52.289C125.843 50.5181 127.412 48.3284 128.405 45.8887L126.196 43.7861Z" fill="#AFB1B8"/>
<path d="M125.329 43.2002L122.183 40.2031C122.123 43.6201 121.104 46.9594 119.231 49.8739C117.358 52.7885 114.699 55.1718 111.532 56.7764H111.548C112.253 56.7761 112.959 56.736 113.659 56.6563C116.619 55.5053 119.234 53.6742 121.27 51.3262C123.306 48.9782 124.701 46.1865 125.329 43.2002Z" fill="#AFB1B8"/>
<path d="M108.176 27.5803L104.423 24C101.068 25.2351 98.1828 27.4064 96.1446 30.2297C94.1065 33.053 93.0105 36.3968 93 39.8234V39.8234C93.0126 43.6097 94.3502 47.2838 96.8012 50.2643C99.2521 53.2448 102.676 55.3614 106.532 56.2791C109.974 52.2838 111.989 47.347 112.285 42.186C112.58 37.025 111.141 31.9086 108.176 27.5803Z" fill="#AFB1B8"/>
<path d="M134 42.649C133.987 38.1568 132.108 33.8522 128.773 30.6757C125.439 27.4992 120.921 25.709 116.206 25.6961C114.027 25.6939 111.867 26.077 109.835 26.8258L132.812 48.7166C133.599 46.7815 134.002 44.7241 134 42.649Z" fill="#AFB1B8"/>
</svg>
